RBDS027runT25_grf
version=1
nRows=24
nColumns=19
inDegrees=no
endheader
time	ground_force_r_vx	ground_force_r_vy	ground_force_r_vz	ground_force_r_px	ground_force_r_py	ground_force_r_pz	ground_force_r_mx	ground_force_r_my	ground_force_r_mz	ground_force_l_vx	ground_force_l_vy	ground_force_l_vz	ground_force_l_px	ground_force_l_py	ground_force_l_pz	ground_force_l_mx	ground_force_l_my	ground_force_l_mz
      7.49900000	      0.00000000	      0.00000000	      0.00000000	      0.00000000	      0.00000000	      0.00000000	      0.00000000	      0.00000000	      0.00000000	   -118.30851612	    834.95280778	      6.93792811	      2.22141590	      0.00000000	      0.97821177	      0.00000000	      3.21160059	     -0.00000000
      7.50000000	      0.00000000	      0.00000000	      0.00000000	      0.00000000	      0.00000000	      0.00000000	      0.00000000	      0.00000000	      0.00000000	   -119.68799530	    851.89376946	      5.67735289	      2.21897692	      0.00000000	      0.97883584	      0.00000000	      3.14889653	     -0.00000000
      7.50100000	      0.00000000	      0.00000000	      0.00000000	      0.00000000	      0.00000000	      0.00000000	      0.00000000	      0.00000000	      0.00000000	   -120.91805093	    868.30728012	      4.35158446	      2.21662899	      0.00000000	      0.97942582	      0.00000000	      3.10778518	      0.00000000
      7.50200000	      0.00000000	      0.00000000	      0.00000000	      0.00000000	      0.00000000	      0.00000000	      0.00000000	      0.00000000	      0.00000000	   -122.14810655	    884.72079077	      3.02581603	      2.21428107	      0.00000000	      0.98001581	      0.00000000	      3.06667384	      0.00000000
      7.50300000	      0.00000000	      0.00000000	      0.00000000	      0.00000000	      0.00000000	      0.00000000	      0.00000000	      0.00000000	      0.00000000	   -123.37816217	    901.13430143	      1.70004760	      2.21193314	      0.00000000	      0.98060579	      0.00000000	      3.02556249	      0.00000000
      7.50400000	      0.00000000	      0.00000000	      0.00000000	      0.00000000	      0.00000000	      0.00000000	      0.00000000	      0.00000000	      0.00000000	   -124.51317734	    917.15902228	      0.37307727	      2.20964426	      0.00000000	      0.98116923	      0.00000000	      2.99937131	      0.00000000
      7.50500000	      0.00000000	      0.00000000	      0.00000000	      0.00000000	      0.00000000	      0.00000000	      0.00000000	      0.00000000	      0.00000000	   -125.60067230	    932.98934822	     -0.95449402	      2.20738491	      0.00000000	      0.98171940	      0.00000000	      2.98064022	      0.00000000
      7.50600000	      0.00000000	      0.00000000	      0.00000000	      0.00000000	      0.00000000	      0.00000000	      0.00000000	      0.00000000	      0.00000000	   -126.68816725	    948.81967416	     -2.28206530	      2.20512555	      0.00000000	      0.98226957	      0.00000000	      2.96190913	      0.00000000
      7.50700000	      0.00000000	      0.00000000	      0.00000000	      0.00000000	      0.00000000	      0.00000000	      0.00000000	      0.00000000	      0.00000000	   -127.72941658	    964.43852048	     -3.58987411	      2.20289434	      0.00000000	      0.98280480	      0.00000000	      2.95070184	      0.00000000
      7.50800000	      0.00000000	      0.00000000	      0.00000000	      0.00000000	      0.00000000	      0.00000000	      0.00000000	      0.00000000	      0.00000000	   -128.67817467	    979.63440757	     -4.85815799	      2.20071940	      0.00000000	      0.98331016	      0.00000000	      2.95454214	      0.00000000
      7.50900000	      0.00000000	      0.00000000	      0.00000000	      0.00000000	      0.00000000	      0.00000000	      0.00000000	      0.00000000	      0.00000000	   -129.62693276	    994.83029466	     -6.12644186	      2.19854446	      0.00000000	      0.98381552	      0.00000000	      2.95838245	      0.00000000
      7.51000000	      0.00000000	      0.00000000	      0.00000000	      0.00000000	      0.00000000	      0.00000000	      0.00000000	      0.00000000	      0.00000000	   -130.57569085	   1010.02618175	     -7.39472573	      2.19636952	      0.00000000	      0.98432087	      0.00000000	      2.96222275	      0.00000000
      7.51100000	      0.00000000	      0.00000000	      0.00000000	      0.00000000	      0.00000000	      0.00000000	      0.00000000	      0.00000000	      0.00000000	   -131.38615630	   1024.54276422	     -8.54793724	      2.19427323	      0.00000000	      0.98477735	      0.00000000	      2.98817109	      0.00000000
      7.51200000	      0.00000000	      0.00000000	      0.00000000	      0.00000000	      0.00000000	      0.00000000	      0.00000000	      0.00000000	      0.00000000	   -132.19662174	   1039.05934669	     -9.70114874	      2.19217695	      0.00000000	      0.98523383	      0.00000000	      3.01411943	      0.00000000
      7.51300000	      0.00000000	      0.00000000	      0.00000000	      0.00000000	      0.00000000	      0.00000000	      0.00000000	      0.00000000	      0.00000000	   -133.00708719	   1053.57592917	    -10.85436024	      2.19008066	      0.00000000	      0.98569031	      0.00000000	      3.04006777	      0.00000000
      7.51400000	      0.00000000	      0.00000000	      0.00000000	      0.00000000	      0.00000000	      0.00000000	      0.00000000	      0.00000000	      0.00000000	   -133.72334317	   1067.61508238	    -11.89893714	      2.18803197	      0.00000000	      0.98611225	      0.00000000	      3.07999473	      0.00000000
      7.51500000	      0.00000000	      0.00000000	      0.00000000	      0.00000000	      0.00000000	      0.00000000	      0.00000000	      0.00000000	      0.00000000	   -134.39249442	   1081.41552097	    -12.88919674	      2.18600707	      0.00000000	      0.98651692	      0.00000000	      3.12691099	      0.00000000
      7.51600000	      0.00000000	      0.00000000	      0.00000000	      0.00000000	      0.00000000	      0.00000000	      0.00000000	      0.00000000	      0.00000000	   -135.06164567	   1095.21595956	    -13.87945634	      2.18398217	      0.00000000	      0.98692158	      0.00000000	      3.17382725	      0.00000000
      7.51700000	      0.00000000	      0.00000000	      0.00000000	      0.00000000	      0.00000000	      0.00000000	      0.00000000	      0.00000000	      0.00000000	   -135.68157939	   1108.76849688	    -14.80276074	      2.18197821	      0.00000000	      0.98730840	      0.00000000	      3.22713269	      0.00000000
      7.51800000	      0.00000000	      0.00000000	      0.00000000	      0.00000000	      0.00000000	      0.00000000	      0.00000000	      0.00000000	      0.00000000	   -136.20307805	   1121.82523168	    -15.59215473	      2.18001611	      0.00000000	      0.98765954	      0.00000000	      3.29321649	      0.00000000
      7.51900000	      0.00000000	      0.00000000	      0.00000000	      0.00000000	      0.00000000	      0.00000000	      0.00000000	      0.00000000	      0.00000000	   -136.72457672	   1134.88196648	    -16.38154871	      2.17805401	      0.00000000	      0.98801068	      0.00000000	      3.35930030	      0.00000000
      7.52000000	      0.00000000	      0.00000000	      0.00000000	      0.00000000	      0.00000000	      0.00000000	      0.00000000	      0.00000000	      0.00000000	   -137.24607538	   1147.93870127	    -17.17094270	      2.17609192	      0.00000000	      0.98836182	      0.00000000	      3.42538410	      0.00000000
      7.52100000	      0.00000000	      0.00000000	      0.00000000	      0.00000000	      0.00000000	      0.00000000	      0.00000000	      0.00000000	      0.00000000	   -137.61062919	   1160.23423678	    -17.73294534	      2.17418294	      0.00000000	      0.98865901	      0.00000000	      3.50822978	      0.00000000
      7.52200000	      0.00000000	      0.00000000	      0.00000000	      0.00000000	      0.00000000	      0.00000000	      0.00000000	      0.00000000	      0.00000000	   -137.97518299	   1172.52977229	    -18.29494797	      2.17227396	      0.00000000	      0.98895620	      0.00000000	      3.59107546	      0.00000000
